<?xml version="1.0" encoding="UTF-8" standalone="no"?><svg xmlns="http://www.w3.org/2000/svg" xmlns:xlink="http://www.w3.org/1999/xlink" contentScriptType="application/ecmascript" contentStyleType="text/css" height="264px" preserveAspectRatio="none" style="width:678px;height:264px;" version="1.1" viewBox="0 0 678 264" width="678px" zoomAndPan="magnify"><defs/><g><text fill="#000000" font-family="sans-serif" font-size="12" font-weight="bold" lengthAdjust="spacingAndGlyphs" textLength="181" x="6" y="17.1387">Публикация нового груза</text><line style="stroke: #AAAAAA; stroke-width: 1.0;" x1="6" x2="364" y1="25.4688" y2="25.4688"/><text fill="#000000" font-family="sans-serif" font-size="12" font-weight="bold" lengthAdjust="spacingAndGlyphs" textLength="67" x="7" y="42.1074">Маршрут</text><text fill="#000000" font-family="sans-serif" font-size="12" lengthAdjust="spacingAndGlyphs" textLength="52" x="7" y="58.0762">Откуда:</text><text fill="#000000" font-family="sans-serif" font-size="12" lengthAdjust="spacingAndGlyphs" textLength="176" x="79" y="58.0762">Введите адрес погрузки...</text><line style="stroke: #000000; stroke-width: 1.0;" x1="77" x2="312" y1="60.9063" y2="60.9063"/><line style="stroke: #000000; stroke-width: 1.0;" x1="77" x2="77" y1="57.9063" y2="59.9063"/><line style="stroke: #000000; stroke-width: 1.0;" x1="312" x2="312" y1="57.9063" y2="59.9063"/><text fill="#000000" font-family="sans-serif" font-size="12" lengthAdjust="spacingAndGlyphs" textLength="36" x="7" y="76.0449">Куда:</text><text fill="#000000" font-family="sans-serif" font-size="12" lengthAdjust="spacingAndGlyphs" textLength="176" x="79" y="76.0449">Введите адрес выгрузки...</text><line style="stroke: #000000; stroke-width: 1.0;" x1="77" x2="312" y1="78.875" y2="78.875"/><line style="stroke: #000000; stroke-width: 1.0;" x1="77" x2="77" y1="75.875" y2="77.875"/><line style="stroke: #000000; stroke-width: 1.0;" x1="312" x2="312" y1="75.875" y2="77.875"/><line style="stroke: #AAAAAA; stroke-width: 1.0;" x1="6" x2="364" y1="87.375" y2="87.375"/><text fill="#000000" font-family="sans-serif" font-size="12" font-weight="bold" lengthAdjust="spacingAndGlyphs" textLength="126" x="7" y="104.0137">Параметры груза</text><text fill="#000000" font-family="sans-serif" font-size="12" lengthAdjust="spacingAndGlyphs" textLength="50" x="7" y="119.9824">Вес (т):</text><text fill="#000000" font-family="sans-serif" font-size="12" lengthAdjust="spacingAndGlyphs" textLength="8" x="138" y="119.9824">0</text><line style="stroke: #000000; stroke-width: 1.0;" x1="136" x2="179" y1="122.8125" y2="122.8125"/><line style="stroke: #000000; stroke-width: 1.0;" x1="136" x2="136" y1="119.8125" y2="121.8125"/><line style="stroke: #000000; stroke-width: 1.0;" x1="179" x2="179" y1="119.8125" y2="121.8125"/><text fill="#000000" font-family="sans-serif" font-size="12" lengthAdjust="spacingAndGlyphs" textLength="77" x="7" y="137.9512">Объем (м3):</text><text fill="#000000" font-family="sans-serif" font-size="12" lengthAdjust="spacingAndGlyphs" textLength="8" x="138" y="137.9512">0</text><line style="stroke: #000000; stroke-width: 1.0;" x1="136" x2="179" y1="140.7813" y2="140.7813"/><line style="stroke: #000000; stroke-width: 1.0;" x1="136" x2="136" y1="137.7813" y2="139.7813"/><line style="stroke: #000000; stroke-width: 1.0;" x1="179" x2="179" y1="137.7813" y2="139.7813"/><text fill="#000000" font-family="sans-serif" font-size="12" lengthAdjust="spacingAndGlyphs" textLength="74" x="7" y="155.9199">Тип кузова:</text><rect fill="#EEEEEE" height="16.9688" style="stroke: #000000; stroke-width: 1.0;" width="167" x="135" y="144.7813"/><text fill="#000000" font-family="sans-serif" font-size="12" lengthAdjust="spacingAndGlyphs" textLength="142" x="137" y="157.9199">Выберите тип кузова</text><line style="stroke: #000000; stroke-width: 1.0;" x1="291" x2="291" y1="144.7813" y2="161.75"/><polygon fill="#000000" points="294,150.7813,300,150.7813,297,156.75" style="stroke: #000000; stroke-width: 1.0;"/><line style="stroke: #AAAAAA; stroke-width: 1.0;" x1="6" x2="364" y1="169.25" y2="169.25"/><text fill="#000000" font-family="sans-serif" font-size="12" font-weight="bold" lengthAdjust="spacingAndGlyphs" textLength="50" x="7" y="185.8887">Ставка</text><text fill="#000000" font-family="sans-serif" font-size="12" font-style="italic" lengthAdjust="spacingAndGlyphs" textLength="267" x="7" y="201.8574">Заполните маршрут и вес для расчета...</text><text fill="#000000" font-family="sans-serif" font-size="12" lengthAdjust="spacingAndGlyphs" textLength="73" x="7" y="217.8262">Ставка (₽):</text><text fill="#000000" font-family="sans-serif" font-size="12" lengthAdjust="spacingAndGlyphs" textLength="8" x="279" y="217.8262">0</text><line style="stroke: #000000; stroke-width: 1.0;" x1="277" x2="360" y1="220.6563" y2="220.6563"/><line style="stroke: #000000; stroke-width: 1.0;" x1="277" x2="277" y1="217.6563" y2="219.6563"/><line style="stroke: #000000; stroke-width: 1.0;" x1="360" x2="360" y1="217.6563" y2="219.6563"/><line style="stroke: #AAAAAA; stroke-width: 1.0;" x1="6" x2="364" y1="229.1563" y2="229.1563"/><rect fill="#EEEEEE" height="17.9688" rx="5" ry="5" style="stroke: #000000; stroke-width: 2.5;" width="68" x="8.5" y="236.1563"/><text fill="#000000" font-family="sans-serif" font-size="12" lengthAdjust="spacingAndGlyphs" textLength="51" x="17" y="249.2949">Отмена</text><rect fill="#EEEEEE" height="17.9688" rx="5" ry="5" style="stroke: #000000; stroke-width: 2.5;" width="300" x="367.5" y="236.1563"/><text fill="#000000" font-family="sans-serif" font-size="12" font-weight="bold" lengthAdjust="spacingAndGlyphs" textLength="225" x="405" y="249.2949">Опубликовать (заблокировано)</text><line style="stroke: #000000; stroke-width: 1.0;" x1="5" x2="364" y1="5" y2="5"/><line style="stroke: #000000; stroke-width: 1.0;" x1="364" x2="671" y1="5" y2="5"/><line style="stroke: #000000; stroke-width: 1.0;" x1="5" x2="364" y1="257.625" y2="257.625"/><line style="stroke: #000000; stroke-width: 1.0;" x1="364" x2="671" y1="257.625" y2="257.625"/><line style="stroke: #000000; stroke-width: 1.0;" x1="5" x2="5" y1="5" y2="20.9688"/><line style="stroke: #000000; stroke-width: 1.0;" x1="671" x2="671" y1="28.9688" y2="82.875"/><line style="stroke: #000000; stroke-width: 1.0;" x1="671" x2="671" y1="5" y2="20.9688"/><line style="stroke: #000000; stroke-width: 1.0;" x1="5" x2="5" y1="224.6563" y2="232.6563"/><line style="stroke: #000000; stroke-width: 1.0;" x1="5" x2="5" y1="164.75" y2="172.75"/><line style="stroke: #000000; stroke-width: 1.0;" x1="671" x2="671" y1="224.6563" y2="232.6563"/><line style="stroke: #000000; stroke-width: 1.0;" x1="5" x2="5" y1="82.875" y2="90.875"/><line style="stroke: #000000; stroke-width: 1.0;" x1="671" x2="671" y1="164.75" y2="172.75"/><line style="stroke: #000000; stroke-width: 1.0;" x1="5" x2="5" y1="20.9688" y2="28.9688"/><line style="stroke: #000000; stroke-width: 1.0;" x1="671" x2="671" y1="82.875" y2="90.875"/><line style="stroke: #000000; stroke-width: 1.0;" x1="671" x2="671" y1="20.9688" y2="28.9688"/><line style="stroke: #000000; stroke-width: 1.0;" x1="5" x2="5" y1="232.6563" y2="257.625"/><line style="stroke: #000000; stroke-width: 1.0;" x1="5" x2="5" y1="172.75" y2="224.6563"/><line style="stroke: #000000; stroke-width: 1.0;" x1="671" x2="671" y1="232.6563" y2="257.625"/><line style="stroke: #000000; stroke-width: 1.0;" x1="5" x2="5" y1="90.875" y2="164.75"/><line style="stroke: #000000; stroke-width: 1.0;" x1="671" x2="671" y1="172.75" y2="224.6563"/><line style="stroke: #000000; stroke-width: 1.0;" x1="5" x2="5" y1="28.9688" y2="82.875"/><line style="stroke: #000000; stroke-width: 1.0;" x1="671" x2="671" y1="90.875" y2="164.75"/></g></svg>